<?xml version="1.0" standalone="no"?>
<!DOCTYPE svg PUBLIC "-//W3C//DTD SVG 20010904//EN"
 "http://www.w3.org/TR/2001/REC-SVG-20010904/DTD/svg10.dtd">
<svg version="1.0" xmlns="http://www.w3.org/2000/svg"
 width="512.000000pt" height="512.000000pt" viewBox="0 0 512.000000 512.000000"
 preserveAspectRatio="xMidYMid meet">

<g transform="translate(0.000000,512.000000) scale(0.100000,-0.100000)"
fill="#000000" stroke="none">
<path d="M523 4464 c-57 -21 -128 -86 -161 -148 l-27 -51 0 -1645 0 -1645 29
-53 c32 -57 81 -102 143 -130 36 -16 166 -17 2065 -20 1837 -2 2028 -1 2042
14 14 14 16 176 16 1694 0 1513 -2 1680 -16 1694 -14 14 -158 16 -1439 16
l-1423 0 -7 38 c-17 95 -79 180 -162 222 l-48 25 -485 2 c-408 1 -492 -1 -527
-13z m1029 -87 c52 -30 89 -74 107 -126 8 -24 11 -236 11 -730 0 -529 3 -700
12 -709 16 -16 33 -15 52 4 14 14 16 87 16 655 l0 639 1400 0 1400 0 0 -1630
0 -1630 -1977 0 c-1350 0 -1990 3 -2016 11 -47 13 -102 60 -128 110 -57 112
17 279 139 314 22 6 22 6 22 -109 0 -107 2 -116 25 -144 44 -53 48 -53 496
-50 407 3 415 3 460 26 63 31 117 86 148 152 l26 55 3 475 c2 261 0 485 -2
496 -7 27 -31 37 -57 24 -18 -10 -19 -27 -19 -470 l0 -459 -51 34 c-27 19 -67
39 -87 45 -50 13 -934 13 -984 0 -20 -6 -60 -26 -87 -45 l-51 -34 0 1475 c0
1311 2 1479 16 1512 27 65 86 115 159 133 17 4 230 7 475 6 l445 -2 47 -28z
m-492 -3112 l0 -25 -179 0 c-99 0 -186 -3 -195 -6 -13 -5 -16 1 -16 25 l0 31
195 0 195 0 0 -25z m487 4 c24 -12 55 -37 70 -56 l26 -34 -20 -27 c-26 -35
-77 -69 -122 -82 -49 -14 -786 -13 -812 0 -26 14 -26 66 0 80 12 6 103 10 225
10 234 0 228 -2 219 83 l-6 47 189 0 c170 0 192 -2 231 -21z"/>
<path d="M1688 2679 c-16 -9 -18 -28 -18 -169 0 -147 1 -160 19 -170 25 -13
27 -13 45 6 13 13 16 42 16 164 0 122 -3 151 -16 164 -18 19 -23 19 -46 5z"/>
<path d="M4066 1466 c-43 -16 -91 -58 -112 -98 -17 -32 -18 -115 -3 -155 25
-67 95 -113 173 -113 110 0 189 77 189 186 0 128 -130 223 -247 180z m122 -92
c37 -24 55 -78 42 -120 -16 -48 -53 -74 -107 -74 -117 0 -147 158 -40 206 35
15 69 11 105 -12z"/>
</g>
</svg>
